<svg width="20" height="23" viewBox="0 0 20 23" fill="none" xmlns="http://www.w3.org/2000/svg">
<path d="M19.3613 7.84148C19.2188 7.94499 16.7031 9.27223 16.7031 12.2234C16.7031 15.637 19.9042 16.8446 20 16.8745C19.9853 16.9481 19.4915 18.5284 18.3122 20.1385C17.2608 21.5555 16.1626 22.9701 14.4921 22.9701C12.8215 22.9701 12.3916 22.0615 10.4631 22.0615C8.58371 22.0615 7.91549 23 6.38742 23C4.85935 23 3.79315 21.6889 2.56725 20.0787C1.14728 18.1879 0 15.2505 0 12.4626C0 7.991 3.10527 5.61946 6.16141 5.61946C7.78528 5.61946 9.13893 6.61776 10.1585 6.61776C11.1289 6.61776 12.6422 5.55966 14.4896 5.55966C15.1898 5.55966 17.7054 5.61946 19.3613 7.84148ZM13.6126 3.66657C14.3766 2.81778 14.9171 1.64006 14.9171 0.462346C14.9171 0.29903 14.9023 0.133413 14.8704 0C13.6273 0.0437044 12.1484 0.775178 11.2566 1.74357C10.5564 2.48885 9.90296 3.66657 9.90296 4.86039C9.90296 5.0398 9.9349 5.21922 9.94964 5.27673C10.0283 5.29053 10.156 5.30663 10.2837 5.30663C11.3991 5.30663 12.8019 4.60736 13.6126 3.66657Z" fill="black"/>
</svg>
