<svg width="74" height="16" viewBox="0 0 74 16" fill="none" xmlns="http://www.w3.org/2000/svg">
<path d="M57.5181 11.9097H59.1469V0.898144H57.5181V11.9097ZM72.1888 4.86461L70.3217 9.63882H70.2658L68.328 4.86461H66.5735L69.4793 11.5371L67.8234 15.249H69.5212L74 4.86461H72.1888ZM62.9519 10.6588C62.4176 10.6588 61.6739 10.3902 61.6739 9.72338C61.6739 8.87424 62.6001 8.54833 63.4005 8.54833C64.1163 8.54833 64.4541 8.70424 64.8888 8.91652C64.7622 9.93655 63.892 10.6588 62.9519 10.6588ZM63.1483 4.62414C61.969 4.62414 60.7469 5.14825 60.2424 6.31009L61.6879 6.91876C61.9969 6.31009 62.5721 6.11102 63.1762 6.11102C64.0185 6.11102 64.8748 6.62103 64.8888 7.5283V7.64105C64.5938 7.47105 63.9627 7.21648 63.1902 7.21648C61.632 7.21648 60.0451 8.0806 60.0451 9.6952C60.0451 11.1689 61.323 12.1184 62.7546 12.1184C63.8501 12.1184 64.4541 11.6225 64.8329 11.0411H64.8888V11.8912H66.4609V7.66924C66.4609 5.71463 65.0154 4.62414 63.1483 4.62414ZM53.0821 6.20527H50.7655V2.43082H53.0821C54.2998 2.43082 54.9911 3.4482 54.9911 4.31761C54.9911 5.17115 54.2998 6.20527 53.0821 6.20527ZM53.0402 0.898144H49.1375V11.9097H50.7655V7.73795H53.0402C54.8453 7.73795 56.6199 6.41843 56.6199 4.31761C56.6199 2.21678 54.8453 0.898144 53.0402 0.898144ZM31.7583 10.6606C30.6332 10.6606 29.6913 9.71017 29.6913 8.40475C29.6913 7.08524 30.6332 6.11982 31.7583 6.11982C32.8695 6.11982 33.7406 7.08524 33.7406 8.40475C33.7406 9.71017 32.8695 10.6606 31.7583 10.6606ZM33.6289 5.48121H33.5722C33.2064 5.04166 32.5038 4.6444 31.6178 4.6444C29.7611 4.6444 28.0599 6.28983 28.0599 8.40475C28.0599 10.5047 29.7611 12.1369 31.6178 12.1369C32.5038 12.1369 33.2064 11.7396 33.5722 11.2851H33.6289V11.8251C33.6289 13.2582 32.8695 14.0246 31.6457 14.0246C30.6471 14.0246 30.0282 13.3005 29.7751 12.6901L28.3549 13.2864C28.7626 14.28 29.8458 15.5 31.6457 15.5C33.5582 15.5 35.1757 14.3646 35.1757 11.5978V4.87078H33.6289V5.48121ZM36.3008 11.9097H37.9323V0.897264H36.3008V11.9097ZM40.3362 8.27703C40.2943 6.82979 41.4474 6.09164 42.2766 6.09164C42.9243 6.09164 43.4725 6.41755 43.6549 6.88616L40.3362 8.27703ZM45.3989 7.02798C45.0899 6.19117 44.1472 4.6444 42.2208 4.6444C40.3083 4.6444 38.7196 6.1621 38.7196 8.39066C38.7196 10.4906 40.2943 12.1369 42.4032 12.1369C44.1053 12.1369 45.0899 11.0869 45.4976 10.4765L44.2319 9.62473C43.8103 10.2493 43.2333 10.6606 42.4032 10.6606C41.5739 10.6606 40.983 10.2774 40.6033 9.52607L45.5674 7.45343L45.3989 7.02798ZM5.8501 5.79391V7.38296H9.61836C9.50576 8.27703 9.21072 8.92974 8.76118 9.38337C8.21214 9.93743 7.35409 10.5479 5.8501 10.5479C3.52909 10.5479 1.71523 8.6602 1.71523 6.3189C1.71523 3.97672 3.52909 2.08993 5.8501 2.08993C7.10182 2.08993 8.01574 2.58673 8.69048 3.22535L9.80167 2.10403C8.85895 1.19587 7.6081 0.5 5.8501 0.5C2.67191 0.5 0 3.11172 0 6.3189C0 9.52607 2.67191 12.1369 5.8501 12.1369C7.56533 12.1369 8.85895 11.5688 9.8715 10.5047C10.9129 9.45472 11.2358 7.9793 11.2358 6.78663C11.2358 6.41755 11.2079 6.07754 11.1512 5.79391H5.8501ZM15.5208 10.6606C14.3957 10.6606 13.425 9.72426 13.425 8.39066C13.425 7.04207 14.3957 6.11982 15.5208 6.11982C16.6451 6.11982 17.6158 7.04207 17.6158 8.39066C17.6158 9.72426 16.6451 10.6606 15.5208 10.6606ZM15.5208 4.6444C13.4669 4.6444 11.7936 6.21936 11.7936 8.39066C11.7936 10.5479 13.4669 12.1369 15.5208 12.1369C17.5739 12.1369 19.2472 10.5479 19.2472 8.39066C19.2472 6.21936 17.5739 4.6444 15.5208 4.6444ZM23.65 10.6606C22.5249 10.6606 21.5542 9.72426 21.5542 8.39066C21.5542 7.04207 22.5249 6.11982 23.65 6.11982C24.7752 6.11982 25.745 7.04207 25.745 8.39066C25.745 9.72426 24.7752 10.6606 23.65 10.6606ZM23.65 4.6444C21.597 4.6444 19.9237 6.21936 19.9237 8.39066C19.9237 10.5479 21.597 12.1369 23.65 12.1369C25.7031 12.1369 27.3764 10.5479 27.3764 8.39066C27.3764 6.21936 25.7031 4.6444 23.65 4.6444Z" fill="white"/>
</svg>
