<svg width="21" height="25" viewBox="0 0 21 25" fill="none" xmlns="http://www.w3.org/2000/svg">
<path d="M9.80482 11.9617L0.0895996 22.5059C0.0905121 22.5078 0.090512 22.5106 0.0914244 22.5125C0.389807 23.6574 1.41179 24.5 2.62539 24.5C3.11083 24.5 3.56616 24.3656 3.95671 24.1305L3.98773 24.1118L14.9229 17.6593L9.80482 11.9617Z" fill="#EA4335"/>
<path d="M19.6331 10.1662L19.624 10.1597L14.9028 7.36123L9.58392 12.2013L14.922 17.6582L19.6176 14.8878C20.4407 14.4324 21 13.545 21 12.5223C21 11.5052 20.4489 10.6225 19.6331 10.1662Z" fill="#FBBC04"/>
<path d="M0.0894234 2.49332C0.0310244 2.71353 0 2.94495 0 3.18383V21.8164C0 22.0552 0.0310245 22.2866 0.0903359 22.5059L10.1386 12.2314L0.0894234 2.49332Z" fill="#4285F4"/>
<path d="M9.8766 12.4999L14.9044 7.35936L3.98195 0.883514C3.58502 0.63997 3.12148 0.500003 2.626 0.500003C1.4124 0.500003 0.388589 1.34448 0.0902064 2.49035C0.0902064 2.49128 0.0892944 2.49221 0.0892944 2.49314L9.8766 12.4999Z" fill="#34A853"/>
</svg>
